<svg width="80" height="80" viewBox="0 0 80 80" fill="none" xmlns="http://www.w3.org/2000/svg">
<path fill-rule="evenodd" clip-rule="evenodd" d="M32.1496 8.66677C33.6103 8.66142 34.9042 9.60762 35.342 11.0011L49.1235 54.8742L52.7002 37.9742C53.0263 36.4334 54.3863 35.3311 55.9613 35.3311H72.0001C73.841 35.3311 75.3334 36.8235 75.3334 38.6644C75.3334 40.5054 73.841 41.9977 72.0001 41.9977H58.663L53.0139 68.6903C52.7001 70.1727 51.4259 71.257 49.9124 71.3296C48.3988 71.4021 47.0267 70.4447 46.5726 68.999L32.2031 23.2541L27.1874 39.64C26.7586 41.041 25.4652 41.9977 24.0001 41.9977H8.00008C6.15913 41.9977 4.66675 40.5054 4.66675 38.6644C4.66675 36.8235 6.15913 35.3311 8.00008 35.3311H21.5344L28.9745 11.0245C29.402 9.62778 30.689 8.67212 32.1496 8.66677Z" fill="black"/>
</svg>
