<svg width="167" height="217" viewBox="0 0 167 217" fill="none" xmlns="http://www.w3.org/2000/svg">
<path d="M36.3755 90.1622C38.9113 88.2227 41.2889 88.1398 43.5697 89.1931C47.6172 81.855 53.1696 77.0449 63.5066 80.2716C91.7943 71.3797 108.017 82.3672 130.272 83.4149C138.776 82.9718 144.794 86.3796 145.152 98.555C149.417 97.4328 163.11 105.335 156.485 130.007C161.182 143.381 157.742 150.113 152.892 155.693C158.79 162.579 163.138 192.335 144.604 193.697C145.23 208.107 130.969 211.62 126.733 201.814C124.343 203.277 121.815 203.999 118.896 202.61C114.04 214.94 96.8868 215.192 97.0602 203.38C85.9709 216.512 74.1974 214.842 64.7902 203.228C60.4033 219.781 44.6814 208.468 42.4182 201.968C42.3287 203.296 35.1077 202.038 35.0333 200.753C27.0353 215.605 16.1808 200.416 16.9596 193.201C9.00253 194.114 -2.68392 175.316 8.02799 159.193C6.64449 150.318 6.52775 141.464 13.2608 132.728C5.01767 134.867 -3.5501 101.389 18.2424 97.858C17.8161 81.7968 32.8056 80.6259 36.3755 90.1622Z" fill="white"/>
<path fill-rule="evenodd" clip-rule="evenodd" d="M98.5268 81.7864C88.5572 80.0888 78.0544 79.6017 64.6236 83.8236C63.8991 84.0513 63.1224 84.0521 62.3976 83.8258C57.965 82.4421 55.0652 82.9068 52.9459 84.0485C50.6787 85.2699 48.7116 87.5809 46.8304 90.9914C45.8871 92.7018 43.7823 93.3924 42.009 92.5734C41.3616 92.2744 40.8772 92.2123 40.4754 92.2564C40.0725 92.3007 39.4705 92.4829 38.638 93.1197C37.7014 93.836 36.4808 94.0664 35.3476 93.7407C34.2143 93.4151 33.3022 92.5719 32.8889 91.4675C31.7745 88.4907 29.0576 87.3964 26.7736 88.0078C24.7508 88.5493 21.7837 90.9319 21.9649 97.7592C22.0143 99.6225 20.6783 101.235 18.8383 101.533C14.4761 102.24 11.8831 104.346 10.3154 106.994C8.66603 109.78 8.00823 113.437 8.20695 117.224C8.40567 121.011 9.44236 124.533 10.7453 126.857C11.4029 128.03 12.0112 128.689 12.4137 128.984C12.4689 129.024 12.513 129.053 12.5468 129.074C14.0194 128.785 15.532 129.411 16.3675 130.675C17.2448 132.002 17.1817 133.74 16.2104 135.001C10.4092 142.528 10.381 150.111 11.7074 158.62C11.8507 159.539 11.6446 160.479 11.1297 161.254C6.55235 168.143 6.75021 175.567 8.96174 181.231C10.0746 184.081 11.6501 186.351 13.2239 187.801C14.885 189.331 16.0735 189.555 16.5358 189.502C17.6598 189.373 18.7814 189.762 19.5841 190.56C20.3867 191.357 20.7833 192.476 20.6619 193.601C20.5665 194.484 20.8337 196.078 21.7028 197.934C22.5485 199.741 23.7547 201.34 25.0067 202.325C26.2472 203.3 27.1539 203.414 27.7924 203.249C28.5099 203.063 30.0028 202.243 31.7555 198.988C32.5452 197.521 34.2129 196.758 35.8392 197.118C36.6376 197.295 37.3306 197.722 37.8407 198.307C37.9772 198.353 38.1409 198.402 38.3298 198.452C38.6424 198.535 38.9885 198.609 39.3419 198.669C39.6958 198.729 40.0353 198.77 40.3346 198.792C40.3785 198.796 40.4206 198.798 40.4607 198.801C40.8948 198.532 41.3895 198.35 41.9217 198.278C43.6754 198.042 45.353 199.073 45.9349 200.744C46.2248 201.576 47.1624 203.009 48.7764 204.497C50.3426 205.942 52.2092 207.124 53.9753 207.707C55.7337 208.287 57.0367 208.177 57.9727 207.663C58.9035 207.153 60.2525 205.817 61.1914 202.274C61.5506 200.919 62.6404 199.881 64.0112 199.587C65.3821 199.294 66.8015 199.795 67.6839 200.885C72.0195 206.237 76.4157 208.697 80.4487 208.864C84.4058 209.027 89.1109 207.023 94.2158 200.978C95.2308 199.776 96.8917 199.342 98.3652 199.893C99.8386 200.444 100.807 201.862 100.784 203.435C100.754 205.416 101.418 206.521 102.161 207.168C102.979 207.88 104.289 208.371 105.995 208.326C109.427 208.236 113.57 205.973 115.432 201.246C115.81 200.285 116.57 199.525 117.53 199.146C118.49 198.767 119.564 198.804 120.496 199.248C121.846 199.89 122.988 199.741 124.79 198.638C125.711 198.075 126.83 197.938 127.859 198.264C128.887 198.59 129.724 199.347 130.152 200.337C131.481 203.415 134.042 204.125 136.225 203.335C138.422 202.54 141.141 199.767 140.884 193.859C140.797 191.848 142.323 190.131 144.331 189.984C147.807 189.728 149.99 188.228 151.472 186.055C153.06 183.726 153.969 180.407 154.193 176.55C154.415 172.736 153.947 168.708 153.081 165.25C152.184 161.673 150.982 159.185 150.065 158.115C148.864 156.713 148.872 154.643 150.082 153.25C152.305 150.694 153.938 148.174 154.63 144.983C155.324 141.785 155.163 137.478 152.973 131.24C152.724 130.532 152.695 129.766 152.89 129.041C156.01 117.422 154.186 110.419 151.761 106.606C150.525 104.662 149.082 103.454 147.875 102.797C146.878 102.255 146.269 102.194 146.102 102.178C146.041 102.172 146.039 102.172 146.099 102.156C145.001 102.445 143.832 102.217 142.922 101.537C142.013 100.857 141.464 99.7993 141.43 98.6644C141.267 93.108 139.835 90.4043 138.295 89.0377C136.731 87.6498 134.268 86.9351 130.466 87.1332C130.343 87.1396 130.22 87.14 130.097 87.1342C124.253 86.859 118.851 85.933 113.685 84.8796C111.9 84.5156 110.171 84.143 108.466 83.7754C105.142 83.0592 101.909 82.3622 98.5268 81.7864ZM12.6338 129.119C12.6338 129.119 12.631 129.118 12.625 129.116C12.6307 129.117 12.6337 129.119 12.6338 129.119ZM130.271 79.6871C125.053 79.4281 120.137 78.5952 115.173 77.583C113.561 77.2542 111.917 76.9002 110.251 76.5414C106.829 75.8045 103.311 75.0471 99.7768 74.4452C89.2636 72.6551 77.8226 72.0776 63.477 76.3856C58.0602 74.925 53.3909 75.3501 49.4141 77.4925C46.2048 79.2214 43.773 81.8987 41.8294 84.8616C41.1296 84.7803 40.406 84.7724 39.6619 84.8542C39.0428 84.9222 38.4369 85.0493 37.8445 85.2313C34.7071 81.2173 29.5998 79.5422 24.848 80.8142C19.3125 82.296 15.2976 87.3445 14.6141 94.8815C9.6924 96.3806 6.16562 99.3863 3.90765 103.2C1.29198 107.617 0.520824 112.858 0.770385 117.614C1.01994 122.37 2.30875 127.037 4.24968 130.499C5.11518 132.043 6.20547 133.517 7.54699 134.628C3.02221 142.711 3.08477 150.815 4.14313 158.375C-1.17627 167.258 -0.786548 176.739 2.02497 183.94C3.48933 187.69 5.65796 190.956 8.17846 193.278C9.66767 194.65 11.4651 195.85 13.4418 196.483C13.7393 198.075 14.2859 199.655 14.9587 201.092C16.1792 203.699 18.0404 206.321 20.4044 208.179C22.78 210.047 26.0379 211.396 29.6597 210.458C32.2354 209.791 34.452 208.102 36.3333 205.627C36.9234 205.786 37.5259 205.914 38.0992 206.011C38.849 206.138 39.6785 206.234 40.4846 206.254C41.3891 207.589 42.5206 208.858 43.7279 209.972C45.8832 211.959 48.6456 213.79 51.6412 214.778C54.6445 215.77 58.236 216.011 61.5523 214.193C63.33 213.219 64.8041 211.776 65.9826 209.919C70.1729 213.71 74.9392 216.089 80.1409 216.304C85.4232 216.523 90.5218 214.488 95.2627 210.476C95.8207 211.334 96.4932 212.107 97.2717 212.785C99.773 214.962 103.023 215.853 106.19 215.77C111.603 215.628 117.416 212.65 120.852 207.015C122.431 207.195 123.913 206.992 125.276 206.568C128.656 210.761 133.987 212.065 138.76 210.337C143.802 208.512 147.547 203.643 148.234 196.869C152.333 195.815 155.451 193.436 157.624 190.251C160.249 186.402 161.359 181.596 161.628 176.983C161.898 172.327 161.332 167.539 160.304 163.439C159.621 160.717 158.68 158.073 157.503 155.915C159.422 153.349 161.09 150.331 161.908 146.562C162.917 141.908 162.549 136.499 160.369 129.863C163.487 117.392 161.767 108.464 158.045 102.61C156.153 99.635 153.786 97.5358 151.434 96.2558C150.556 95.7785 149.604 95.3761 148.625 95.1041C148.004 90.0968 146.277 86.1647 143.238 83.4682C139.628 80.2634 134.911 79.4729 130.271 79.6871Z" fill="#9D9D9D"/>
<path opacity="0.59983" d="M139.364 90.0222C141.965 94.0366 142.328 98.0832 140.707 102.158C143.919 102.494 147.488 102.025 150.183 104.539C154.308 108.385 154.354 113.248 154.537 117.776C154.786 123.907 151.823 127.819 149.006 127.97C147.601 127.103 145.648 124.914 148.47 122.412C152.54 118.805 148.908 116.346 147.819 116.389C143.156 116.573 139.506 123.807 141.882 127.017C144.506 130.559 147.843 130.106 150.449 131.859C157.733 136.761 153.542 150.073 149.451 154.082C148.066 155.837 147.483 155.578 145.309 157.65C141.171 163.622 140.357 169.497 143.399 173.992C145.518 177.123 153.052 177.313 147.925 170.78C143.628 165.306 154.32 158.517 153.917 177.56C152.362 192.757 142.811 189.22 140.155 189.955C141.411 194.56 140.419 196.783 139.7 199.294C138.466 202.939 132.963 206.899 130.179 201.311C128.289 197.516 130.228 191.364 133.64 196.542C136.075 200.236 140.054 193.056 135.883 190.036C131.716 187.018 129.181 187.793 127.833 191.339C127.367 197.761 125.894 197.891 122.707 199.678C118.27 201.166 119.083 191.497 119.089 190.46C118.899 193.963 114.8 202.972 114.8 202.972C109.344 210.471 101.49 210.031 100.968 205.235C100.165 197.857 106.464 201.006 104.186 205.07C107.781 207.171 115.669 197.438 106.943 193.321C104.321 192.084 97.9144 196.607 94.8125 200.079C82.686 213.653 74.5415 208.572 66.2998 199.767C63.7849 196.708 60.0554 195.091 56.7531 192.966C52.2792 192.747 51.1977 196.094 51.3275 200.715C52.4405 204.166 54.0725 206.385 57.3465 204.711C56.5803 202.451 56.2611 200.45 59.8238 200.693C60.3059 203.242 61.7169 205.905 57.1015 207.832C53.6934 208.933 50.2403 206.841 46.7563 202.572C44.5565 198.616 43.5051 194.135 42.2138 189.764C42.4818 193.817 43.6944 198.789 39.7421 198.738C36.7311 198.82 35.6713 196.226 34.669 193.552C34.587 191.214 34.7611 188.848 30.9683 186.901C26.5106 186.511 25.2059 189.214 24.9557 192.951C25.901 197.901 28.3121 196.088 30.7389 194.201C33.218 202.012 29.5897 202.544 25.4894 202.513C22.4626 200.992 20.1378 198.227 21.5131 188.899C12.1241 190.127 9.00329 183.987 8.34326 173.321C8.03888 168.106 14.1552 166.489 14.5974 172.447C11.3123 181.05 18.8569 178.587 19.8597 174.763C21.4506 168.697 15.9513 160.875 13.3349 158.182C11.8302 153.236 9.70495 147.339 17.184 135.348C19.0597 132.169 26.1498 130.177 23.0494 122.07C19.192 111.983 12.9514 115.73 13.5756 116.405C14.3362 120.108 17.0037 119.35 17.0752 122.565C17.1578 126.282 14.8243 128.887 11.315 125.849C2.9357 113.836 10.2305 101.291 22.0688 100.747C23.622 97.9979 19.7698 85.421 30.7968 87.3998C36.9138 91.9877 31.338 95.1522 29.4487 93.7817C27.6958 92.5101 23.9189 95.7099 25.9076 98.226C26.914 99.4993 30.2061 99.8577 32.3667 99.1702C34.5703 98.4691 36.6207 97.0298 37.3521 94.2569C39.093 92.4365 43.6316 88.5888 45.529 99.3544C44.367 85.9741 55.7925 79.1937 62.2612 83.5544C64.1774 84.8461 65.9785 87.6245 65.4977 89.1648C64.4333 92.5749 60.3339 91.541 59.8926 90.1012C59.4657 88.7082 61.6789 88.4417 60.6078 87.7613C56.7754 85.3268 55.0921 89.5989 54.8245 91.2976C52.7767 104.297 66.4899 96.136 69.1203 91.6347C75.212 81.2098 74.8832 82.4763 91.582 78.9423" stroke="#616161" stroke-width="4.35761" stroke-dasharray="8.72 4.36"/>
<path d="M79.3668 83.3291L85.7485 87.8316L103.332 92.2825L137.339 92.084L155.871 85.9105L162.246 81.0639L161.209 65.3768L79.2324 64.5493L79.3668 83.3291Z" fill="#C4618C"/>
<path d="M78.1711 84.803L78.1289 101.574L81.7637 105.324L98.9322 111.17C114.398 113.61 129.188 112.947 143.538 110.267C150.438 108.432 156.974 106.067 161.773 101.169L161.586 81.5864C159.605 84.0719 156.507 85.9529 152.879 87.5481C149.121 89.8018 144.392 90.7218 139.646 91.6187C127.556 92.6466 116.707 94.2851 96.4828 91.3074L78.1711 84.803Z" fill="#F1DD38"/>
<path d="M77.7593 101.387L77.8203 119.82L79.0124 121.441L81.5266 124.299C109.533 134.8 140.633 134.164 160.069 121.169L161.853 118.081L161.713 101.452L158.044 104.556C152.772 107.822 147.377 109.921 141.82 110.478C128.858 113.235 115.34 113.088 101.499 111.248C91.804 109.223 82.7093 106.773 77.7593 101.387Z" fill="#794D3E"/>
<path fill-rule="evenodd" clip-rule="evenodd" d="M161.735 71.8705C162.257 71.8713 162.679 72.2951 162.678 72.8171L162.61 118.16C162.61 118.219 162.605 118.279 162.593 118.338C162.076 121.012 159.765 123.153 156.776 124.856C153.743 126.584 149.785 127.992 145.557 129.103C137.097 131.325 127.349 132.411 121.257 132.405C116.55 132.4 105.682 131.9 95.9175 129.997C91.0425 129.047 86.3748 127.736 82.8771 125.924C79.4249 124.137 76.8149 121.698 76.694 118.381C76.6936 118.369 76.6934 118.358 76.6934 118.346L76.7002 84.6534C76.7003 84.1315 77.1235 83.7084 77.6455 83.7085C78.1675 83.7086 78.5905 84.1318 78.5904 84.6538L78.5836 118.328C78.6735 120.564 80.4494 122.538 83.7464 124.246C87.0063 125.934 91.467 127.204 96.2789 128.142C105.888 130.014 116.627 130.51 121.259 130.515C127.187 130.521 136.773 129.456 145.076 127.275C149.23 126.183 153.011 124.826 155.84 123.214C158.668 121.603 160.333 119.859 160.72 118.062L160.788 72.8142C160.789 72.2923 161.213 71.8697 161.735 71.8705Z" fill="black"/>
<path fill-rule="evenodd" clip-rule="evenodd" d="M81.3851 105.705C79.0053 104.097 77.2802 102.176 76.686 99.9183L78.514 99.4372C78.9439 101.071 80.2521 102.658 82.4433 104.139C84.624 105.612 87.5827 106.912 91.1193 108.002C98.1883 110.179 107.404 111.467 116.896 111.696C126.386 111.925 136.093 111.095 144.144 109.073C152.25 107.037 158.452 103.849 161.23 99.5425L162.818 100.567C159.629 105.511 152.806 108.846 144.604 110.906C136.347 112.98 126.462 113.818 116.85 113.586C107.24 113.354 97.8427 112.051 90.5628 109.808C86.925 108.687 83.7752 107.32 81.3851 105.705Z" fill="black"/>
<path fill-rule="evenodd" clip-rule="evenodd" d="M135.954 0.367311C136.273 0.780359 136.197 1.37392 135.784 1.69306C132.976 3.86234 129.248 8.74311 126.208 14.3567C123.167 19.9731 120.935 26.104 120.936 30.7223C120.936 31.2443 120.513 31.6675 119.991 31.6676C119.469 31.6677 119.045 31.2446 119.045 30.7226C119.045 25.626 121.46 19.1562 124.546 13.4567C127.634 7.75432 131.513 2.60389 134.628 0.197281C135.041 -0.121862 135.635 -0.0457374 135.954 0.367311Z" fill="black"/>
<path fill-rule="evenodd" clip-rule="evenodd" d="M81.2488 86.2857C78.8691 84.6779 77.144 82.7569 76.5498 80.4991L78.3778 80.0181C78.8077 81.6516 80.1159 83.239 82.307 84.7194C84.4878 86.1927 87.4465 87.4929 90.9831 88.5825C98.052 90.7603 107.267 92.0477 116.759 92.2769C126.249 92.506 135.957 91.6758 144.008 89.6538C152.114 87.6179 158.316 84.4299 161.094 80.1234L162.682 81.1481C159.493 86.0917 152.67 89.4273 144.468 91.4871C136.211 93.5609 126.326 94.3986 116.714 94.1666C107.103 93.9345 97.7064 92.6317 90.4266 90.3889C86.7888 89.2682 83.639 87.9005 81.2488 86.2857Z" fill="black"/>
<path d="M79.5361 68.1691C79.5361 68.1691 79.6132 75.1589 79.6853 76.5138C79.7861 78.4059 80.8574 81.7063 82.9612 83.0929C90.4328 88.0173 110.525 89.8614 110.525 89.8614C110.525 89.8614 90.6224 87.5165 83.5736 81.2503C82.2877 80.1073 81.9866 78.1822 81.4375 76.5517C80.523 73.8364 79.5361 68.1691 79.5361 68.1691Z" fill="#BC4077"/>
<path d="M75.6934 74.7114C75.6224 69.0798 75.6149 64.0536 76.4191 60.008C80.3864 50.0706 94.6815 45.5198 120.749 44.6288C152.127 45.5843 161.732 53.6279 164.532 60.1513C165.071 61.6014 165.113 63.9775 165.055 66.3006C165.212 69.6555 164.778 72.1562 161.54 72.6127C157.235 73.1858 149.893 72.2659 145.793 75.4984C136.387 81.8955 146.265 103.604 123.73 101.366C112.433 101.047 112.659 88.5789 105.613 80.4428C102.238 75.9134 88.7738 70.5006 86.5846 72.634C85.4583 73.1942 84.9551 76.2655 84.2587 79.3929C81.892 92.4333 75.2902 85.675 75.6934 74.7114Z" fill="white"/>
<path fill-rule="evenodd" clip-rule="evenodd" d="M120.716 43.6842C120.736 43.6835 120.757 43.6835 120.777 43.6841C152.213 44.6413 162.363 52.7043 165.399 59.7786C165.405 59.7929 165.411 59.8073 165.417 59.8219C165.734 60.6759 165.887 61.7407 165.959 62.836C166.032 63.934 166.028 65.1299 166 66.2906C166.076 67.9651 166.021 69.6156 165.432 70.9301C165.125 71.6148 164.672 72.2154 164.024 72.6758C163.382 73.1329 162.596 73.4182 161.671 73.5485L161.664 73.5495C160.533 73.7 159.22 73.7508 157.87 73.7954C157.75 73.7993 157.63 73.8032 157.51 73.8072C156.254 73.848 154.958 73.8902 153.669 74C150.813 74.2431 148.196 74.8067 146.378 76.2405C146.36 76.2543 146.342 76.2674 146.324 76.2799C144.26 77.6835 143.191 79.9621 142.461 82.7901C142.097 84.1993 141.828 85.6991 141.55 87.2511L141.547 87.2706C141.272 88.8031 140.989 90.3852 140.6 91.9051C139.819 94.9516 138.576 97.9068 135.933 99.92C133.287 101.936 129.414 102.876 123.668 102.31C120.668 102.219 118.374 101.316 116.533 99.8445C114.708 98.386 113.385 96.4124 112.243 94.2821C111.57 93.0256 110.925 91.6405 110.277 90.2503C109.849 89.33 109.419 88.4075 108.98 87.5185C107.847 85.2283 106.582 83.0064 104.898 81.0616C104.882 81.0441 104.868 81.0261 104.854 81.0076C104.115 80.0153 102.758 78.9022 101.021 77.8125C99.3021 76.7344 97.2841 75.7239 95.2969 74.9153C93.305 74.1047 91.3798 73.5116 89.8461 73.2487C89.0767 73.1168 88.4436 73.0747 87.9677 73.1133C87.4648 73.154 87.2826 73.2726 87.2433 73.3109C87.173 73.3794 87.0924 73.4365 87.0045 73.4803C87.0051 73.48 86.9703 73.4974 86.9071 73.5713C86.8437 73.6455 86.767 73.7586 86.6812 73.9232C86.5075 74.2567 86.3378 74.7212 86.1677 75.3122C85.9191 76.1762 85.6998 77.1964 85.4619 78.3039C85.3728 78.7183 85.2811 79.1449 85.1843 79.5801C84.5849 82.8727 83.6916 85.1128 82.5602 86.3441C81.976 86.9798 81.2795 87.3975 80.4925 87.4738C79.7044 87.5502 78.9788 87.2694 78.3673 86.8082C77.1834 85.9153 76.2451 84.2218 75.6236 82.1768C74.9926 80.1006 74.6456 77.5255 74.7471 74.7002C74.6766 69.1005 74.6652 63.9788 75.4912 59.8238C75.5025 59.767 75.5189 59.7114 75.5404 59.6576C77.6666 54.3317 82.5254 50.5693 89.9913 48.0312C97.4509 45.4952 107.651 44.1308 120.716 43.6842ZM120.75 45.5744C107.762 46.0199 97.7909 47.3761 90.5997 49.8208C83.4511 52.2511 79.1866 55.7066 77.3282 60.2783C76.5638 64.1944 76.5667 69.0862 76.6375 74.6995C76.6377 74.715 76.6375 74.7306 76.6369 74.7461C76.5396 77.3934 76.8665 79.7659 77.4321 81.6271C78.009 83.5253 78.7935 84.762 79.5055 85.2991C79.8419 85.5528 80.1076 85.612 80.3101 85.5924C80.5137 85.5726 80.8071 85.4582 81.1683 85.0651C81.9257 84.2408 82.7439 82.4416 83.3278 79.2241C83.33 79.2118 83.3325 79.1996 83.3352 79.1875C83.4248 78.7853 83.5125 78.377 83.5998 77.9705C83.843 76.8385 84.0832 75.7206 84.3512 74.7894C84.5348 74.1515 84.7456 73.5477 85.0048 73.05C85.2328 72.6122 85.5547 72.1448 86.0316 71.8595C86.5304 71.4381 87.1952 71.2794 87.8151 71.2292C88.5077 71.1731 89.312 71.2393 90.1655 71.3856C91.8775 71.6791 93.9398 72.3223 96.0094 73.1644C98.0837 74.0085 100.201 75.0672 102.025 76.2112C103.817 77.3353 105.398 78.5868 106.349 79.8497C108.176 81.9665 109.519 84.3443 110.674 86.6807C111.161 87.6647 111.604 88.6178 112.034 89.5434C112.655 90.879 113.249 92.1575 113.909 93.3893C115.004 95.4328 116.183 97.1446 117.713 98.3679C119.22 99.5729 121.124 100.347 123.755 100.421C123.778 100.422 123.8 100.423 123.822 100.426C129.326 100.972 132.659 100.037 134.788 98.4163C136.925 96.7888 138.026 94.3366 138.768 91.4361C139.139 89.9888 139.412 88.4694 139.689 86.918L139.692 86.9012C139.967 85.3685 140.247 83.8027 140.631 82.3175C141.395 79.3561 142.613 76.5315 145.233 74.7356C147.512 72.953 150.602 72.364 153.508 72.1166C154.85 72.0023 156.195 71.9586 157.443 71.9181C157.566 71.9141 157.687 71.9101 157.808 71.9062C159.172 71.8611 160.389 71.812 161.411 71.6763C162.103 71.5782 162.585 71.3801 162.929 71.1354C163.268 70.8938 163.52 70.5739 163.707 70.1571C164.102 69.2773 164.188 68.0136 164.11 66.345C164.109 66.3287 164.109 66.3125 164.109 66.2963C164.109 66.2899 164.109 66.2834 164.109 66.277C164.138 65.125 164.141 63.9838 164.073 62.9611C164.005 61.9372 163.87 61.0967 163.653 60.5017C161.077 54.5335 152.006 46.5312 120.75 45.5744Z" fill="black"/>
<path d="M114.123 57.989C121.014 57.989 126.601 56.0552 126.601 53.6696C126.601 51.2841 121.014 49.3503 114.123 49.3503C107.231 49.3503 101.645 51.2841 101.645 53.6696C101.645 56.0552 107.231 57.989 114.123 57.989Z" fill="#DEDEDE"/>
<path d="M135.807 1.81766L142.275 3.88124L146.94 6.86654L150.293 11.3206L153.021 17.919L153.234 23.9297L153.229 35.6268L147.892 31.5213L140.573 13.1525L135.815 3.28333L135.807 1.81766Z" fill="#286900"/>
<path d="M118.632 56.7449C126.188 56.7449 132.314 50.9191 132.314 43.7326C132.314 36.5461 126.188 30.7202 118.632 30.7202C111.076 30.7202 104.951 36.5461 104.951 43.7326C104.951 50.9191 111.076 56.7449 118.632 56.7449Z" fill="#A82024"/>
<path fill-rule="evenodd" clip-rule="evenodd" d="M118.633 31.6654C111.554 31.6654 105.897 37.1122 105.897 43.7326C105.897 50.3531 111.554 55.7998 118.633 55.7998C125.712 55.7998 131.369 50.3531 131.369 43.7326C131.369 37.1122 125.712 31.6654 118.633 31.6654ZM104.006 43.7326C104.006 35.9801 110.6 29.7752 118.633 29.7752C126.665 29.7752 133.259 35.9801 133.259 43.7326C133.259 51.4852 126.665 57.6901 118.633 57.6901C110.6 57.6901 104.006 51.4852 104.006 43.7326Z" fill="black"/>
<path d="M136.183 1.9885C144.871 10.9996 144.152 24.5118 153.473 36.0621L146.448 33.2598L138.849 22.7729L136.604 12.0227L135.989 3.30226L136.183 1.9885Z" fill="#358B00"/>
<path fill-rule="evenodd" clip-rule="evenodd" d="M135.094 0.633181C135.324 0.455267 135.624 0.395208 135.905 0.470844C141.539 1.9879 145.471 4.15623 148.194 6.82331C150.925 9.49789 152.379 12.6152 153.153 15.9201C153.921 19.204 154.023 22.6946 154.042 26.1219C154.045 26.6426 154.046 27.1615 154.047 27.6783C154.053 30.5969 154.059 33.4483 154.399 36.1832C154.438 36.4934 154.318 36.8024 154.081 37.0055C153.843 37.2087 153.519 37.279 153.219 37.1927C147.676 35.6005 143.063 32.2591 139.837 26.4564C136.63 20.689 134.824 12.546 134.732 1.37732C134.73 1.0864 134.863 0.811094 135.094 0.633181ZM136.611 2.60694C136.822 12.959 138.582 20.3677 141.464 25.5518C144.178 30.432 147.909 33.3857 152.402 34.9775C152.195 32.5653 152.19 30.089 152.185 27.6597C152.184 27.1482 152.183 26.6388 152.18 26.1324C152.161 22.7073 152.056 19.4042 151.34 16.3445C150.629 13.3061 149.318 10.5301 146.892 8.15327C144.64 5.94796 141.377 4.03614 136.611 2.60694Z" fill="black"/>
<path d="M88.5532 52.4077C76.8007 59.3156 82.0099 65.1227 84.4146 65.9971C96.1388 70.2601 113.401 70.8164 135.274 69.5347C139.74 69.273 148.605 67.9758 148.605 67.9758C148.605 67.9758 135.755 68.1751 129.341 68.5389C121.178 69.0019 95.7808 68.5206 87.3899 63.3419C84.2433 61.3999 85.8024 56.5853 88.5532 52.4077Z" fill="#DEDEDE"/>
<path d="M106.745 50.7111C36.539 12.8544 71.6419 31.7827 106.745 50.7111V50.7111Z" fill="#DEDEDE"/>
<path d="M79.8462 88.1935C79.8462 88.1935 79.9232 95.1833 79.9954 96.5382C80.0962 98.4304 81.1675 101.731 83.2712 103.117C90.7428 108.042 110.835 109.886 110.835 109.886C110.835 109.886 90.9325 107.541 83.8836 101.275C82.5978 100.132 82.2967 98.2066 81.7475 96.5762C80.833 93.8608 79.8462 88.1935 79.8462 88.1935Z" fill="#F1C138"/>
<path d="M79.7324 107.506C79.7324 107.506 79.8095 114.496 79.8816 115.851C79.9824 117.743 81.0537 121.044 83.1575 122.43C90.6291 127.355 110.722 129.199 110.722 129.199C110.722 129.199 90.8187 126.854 83.7699 120.588C82.484 119.445 82.1829 117.52 81.6338 115.889C80.7193 113.174 79.7324 107.506 79.7324 107.506Z" fill="#4C2B20"/>
<path d="M115.356 54.0916C116.616 54.5121 116.305 53.5366 115.632 53.2178C112.561 51.7617 109.219 46.7175 108.068 44.7941C107.664 44.1192 107.317 44.4712 107.394 44.8478C108.269 49.1465 111.178 52.8006 115.356 54.0916Z" fill="#8B181B"/>
<path d="M124.858 39.251C126.326 40.8765 128.117 41.6514 128.858 40.9818C129.6 40.3121 129.011 38.4516 127.543 36.826C126.075 35.2005 124.284 34.4256 123.542 35.0952C122.801 35.7648 123.39 37.6254 124.858 39.251Z" fill="#BB4A4D"/>
<path d="M51.0008 138.545C50.9787 138.017 50.8904 137.402 50.7358 136.698C50.5922 135.994 50.3216 135.367 49.9241 134.817C49.5376 134.257 48.9688 133.943 48.2179 133.877C47.0031 133.844 45.9926 134.295 45.1865 135.23C44.3803 136.165 43.7784 137.391 43.3809 138.908C42.9943 140.426 42.8011 142.042 42.8011 143.758C42.8011 145.462 42.9888 147.073 43.3643 148.591C43.7508 150.097 44.3195 151.312 45.0705 152.236C45.8215 153.16 46.7546 153.6 47.87 153.556C48.9191 153.424 49.7087 152.967 50.2388 152.187C50.7799 151.395 51.0947 150.576 51.183 149.729C51.3266 149.014 51.7021 148.596 52.3095 148.475C52.9279 148.343 53.5132 148.42 54.0654 148.706C54.6175 148.981 54.8715 149.371 54.8274 149.877C54.4629 151.692 53.5353 153.121 52.0444 154.166C50.5646 155.2 48.8805 155.689 46.9921 155.634C44.8275 155.502 43.0496 154.721 41.6581 153.292C40.2777 151.851 39.3003 150.064 38.7261 147.931C38.1628 145.798 38.0248 143.626 38.3119 141.415C38.5991 139.194 39.3279 137.242 40.4985 135.56C41.6802 133.866 43.3256 132.739 45.4349 132.178C47.0694 131.793 48.5768 131.799 49.9572 132.196C51.3376 132.591 52.453 133.317 53.3034 134.373C54.1537 135.418 54.612 136.732 54.6783 138.315C54.6451 138.81 54.3414 139.173 53.7672 139.404C53.1929 139.624 52.6076 139.673 52.0113 139.552C51.426 139.431 51.0892 139.095 51.0008 138.545Z" fill="black"/>
<path d="M56.8156 133.349C56.9923 132.524 57.4395 132.063 58.1573 131.964C58.8752 131.854 59.5433 132.002 60.1617 132.409C60.7801 132.816 61.0341 133.366 60.9237 134.058C60.6587 135.18 60.4599 136.302 60.3274 137.423C60.1948 138.545 60.1286 139.447 60.1286 140.128C61.763 139.249 63.2484 138.957 64.5846 139.254C65.9319 139.54 67.0086 140.359 67.8148 141.712C68.621 143.065 69.0351 144.89 69.0572 147.188C69.0241 149.487 68.9191 151.427 68.7424 153.011C68.7204 153.242 68.6983 153.456 68.6762 153.654C68.5879 154.182 68.24 154.512 67.6326 154.644C67.0362 154.765 66.451 154.715 65.8767 154.496C65.3024 154.265 65.0263 153.885 65.0484 153.357C65.0595 153.236 65.076 153.099 65.0981 152.945C65.2086 152.186 65.319 151.202 65.4294 149.992C65.5399 148.783 65.5785 147.551 65.5454 146.298C65.5123 145.044 65.33 143.972 64.9987 143.081C64.6785 142.179 64.1374 141.657 63.3754 141.514C62.7348 141.415 62.1054 141.707 61.4869 142.388C60.8685 143.059 60.4213 144.192 60.1452 145.786C59.8691 147.381 59.9133 149.514 60.2777 152.186C60.2998 152.681 60.0347 153.038 59.4826 153.258C58.9304 153.478 58.3561 153.522 57.7598 153.39C57.1634 153.247 56.8156 152.885 56.7162 152.302C56.407 149.311 56.2468 146.094 56.2358 142.652C56.2248 139.21 56.418 136.109 56.8156 133.349Z" fill="black"/>
<path d="M79.7904 143.593C79.934 142.735 79.8787 141.993 79.6247 141.366C79.3707 140.739 78.9621 140.349 78.3989 140.195C77.4602 140.008 76.6706 140.222 76.0301 140.838C75.3896 141.443 74.9644 142.207 74.7546 143.131C74.5448 144.044 74.6 144.857 74.9202 145.572C75.3178 146.32 75.8534 146.721 76.5271 146.776C77.2118 146.831 77.8633 146.584 78.4818 146.034C79.1112 145.484 79.5474 144.67 79.7904 143.593ZM74.6221 148.211C74.8319 149.905 75.3288 151.026 76.1129 151.576C76.897 152.115 77.648 152.274 78.3658 152.055C79.0946 151.824 79.5585 151.263 79.7573 150.372C79.8567 149.8 80.1272 149.459 80.569 149.349C81.0217 149.228 81.4469 149.283 81.8445 149.514C82.2531 149.734 82.4353 150.064 82.3911 150.504C82.1592 151.571 81.5849 152.456 80.6683 153.16C79.7628 153.852 78.6087 154.155 77.2062 154.067C75.8148 153.979 74.5503 153.484 73.4128 152.582C72.2864 151.67 71.4968 150.438 71.044 148.887C70.6023 147.326 70.5139 145.742 70.779 144.137C71.0551 142.52 71.7121 141.135 72.7502 139.98C73.7993 138.826 75.246 138.155 77.0903 137.968C78.7578 137.88 80.0775 138.221 81.0493 138.991C82.0322 139.76 82.6451 140.734 82.8881 141.91C83.1421 143.076 83.0095 144.214 82.4905 145.325C81.9825 146.435 81.0769 147.287 79.7738 147.881C78.4707 148.475 76.7534 148.585 74.6221 148.211Z" fill="black"/>
<path d="M84.611 140.772C84.6663 139.914 85.0141 139.342 85.6547 139.056C86.2952 138.77 86.9522 138.743 87.6259 138.974C88.2995 139.205 88.7192 139.661 88.8848 140.343C89.6358 139.529 90.4972 139.051 91.469 138.908C92.4408 138.754 93.3961 138.952 94.3348 139.502C95.2735 140.041 96.0631 140.948 96.7036 142.223C96.9576 142.85 96.8361 143.411 96.3392 143.906C95.8422 144.401 95.2734 144.703 94.6329 144.813C94.0035 144.912 93.6059 144.687 93.4403 144.137C93.2304 143.202 92.8881 142.498 92.4132 142.025C91.9384 141.542 91.4193 141.366 90.8561 141.498C90.3039 141.618 89.807 142.113 89.3652 142.982C88.9345 143.95 88.6916 145.022 88.6364 146.199C88.5921 147.364 88.6087 148.524 88.686 149.679C88.7413 150.581 88.7578 151.416 88.7356 152.186C88.6804 152.758 88.3767 153.159 87.8245 153.39C87.2834 153.621 86.7312 153.638 86.168 153.44C85.6048 153.231 85.268 152.769 85.1575 152.054C85.0029 150.427 84.8704 148.574 84.76 146.495C84.6495 144.406 84.6 142.498 84.611 140.772Z" fill="black"/>
<path d="M98.4264 140.772C98.4817 139.914 98.8296 139.342 99.47 139.056C100.111 138.77 100.768 138.743 101.441 138.974C102.115 139.205 102.535 139.661 102.7 140.343C103.451 139.529 104.313 139.051 105.284 138.908C106.256 138.754 107.211 138.952 108.15 139.502C109.089 140.041 109.878 140.948 110.519 142.223C110.773 142.85 110.651 143.411 110.155 143.906C109.658 144.401 109.089 144.703 108.448 144.813C107.819 144.912 107.421 144.687 107.256 144.137C107.046 143.202 106.703 142.498 106.229 142.025C105.754 141.542 105.235 141.366 104.671 141.498C104.119 141.618 103.622 142.113 103.181 142.982C102.75 143.95 102.507 145.022 102.452 146.199C102.408 147.364 102.424 148.524 102.501 149.679C102.557 150.581 102.573 151.416 102.551 152.186C102.496 152.758 102.192 153.159 101.64 153.39C101.099 153.621 100.547 153.638 99.9834 153.44C99.4202 153.231 99.0834 152.769 98.9729 152.054C98.8183 150.427 98.6858 148.574 98.5754 146.495C98.465 144.406 98.4154 142.498 98.4264 140.772Z" fill="black"/>
<path d="M125.377 138.05C125.389 138.853 125.411 139.738 125.443 140.706C125.499 142.312 125.51 144.016 125.477 145.82C125.455 147.612 125.283 149.327 124.963 150.966C124.643 152.593 124.08 153.962 123.273 155.073C122.478 156.184 121.341 156.86 119.861 157.102C119.066 157.212 118.249 157.206 117.409 157.085C116.57 156.975 115.797 156.689 115.09 156.227C114.383 155.765 113.837 155.072 113.45 154.149C113.196 153.401 113.279 152.835 113.699 152.45C114.118 152.054 114.604 151.883 115.157 151.938C115.709 151.993 116.057 152.323 116.2 152.928C116.388 153.863 116.78 154.528 117.376 154.924C117.973 155.309 118.619 155.38 119.314 155.138C120.021 154.885 120.623 154.275 121.12 153.307C121.617 152.34 121.86 150.965 121.849 149.184C121.573 149.624 121.048 149.997 120.275 150.305C119.513 150.602 118.652 150.718 117.691 150.652C116.123 150.465 114.941 149.871 114.146 148.87C113.362 147.87 112.843 146.688 112.589 145.324C112.346 143.949 112.252 142.613 112.307 141.316C112.363 140.007 112.456 138.957 112.589 138.165C112.721 137.516 113.119 137.121 113.782 136.978C114.455 136.824 115.09 136.879 115.687 137.142C116.294 137.406 116.581 137.824 116.548 138.396C116.526 138.572 116.498 138.759 116.465 138.957C116.333 139.771 116.206 140.744 116.084 141.876C115.974 143.009 115.963 144.114 116.051 145.192C116.15 146.27 116.443 147.138 116.929 147.798C117.426 148.458 118.216 148.733 119.298 148.623C120.225 148.447 120.855 147.782 121.186 146.627C121.517 145.461 121.678 144.131 121.667 142.635C121.655 141.129 121.594 139.776 121.484 138.578C121.462 137.665 121.766 137.065 122.396 136.78C123.025 136.483 123.666 136.455 124.317 136.697C124.98 136.928 125.333 137.38 125.377 138.05Z" fill="black"/>
<path d="M48.0798 163.81C48.0239 164.706 47.8336 165.415 47.509 165.937C47.1845 166.453 46.776 166.825 46.2836 167.051C45.7911 167.273 45.2679 167.389 44.7139 167.399C44.16 167.42 43.6284 167.339 43.1191 167.154C42.6155 166.97 42.1902 166.643 41.8433 166.174C41.5019 165.699 41.2977 165.043 41.2306 164.205C41.1914 163.467 41.2585 162.848 41.432 162.347C41.6111 161.841 41.8685 161.438 42.2042 161.137C42.5456 160.832 42.9345 160.613 43.371 160.481C43.8074 160.35 44.2607 160.284 44.7307 160.284C45.3127 160.284 45.8667 160.397 46.3927 160.624C46.9187 160.85 47.3384 161.224 47.6517 161.746C47.9651 162.263 48.1078 162.951 48.0798 163.81ZM43.2786 164.086C43.3178 164.824 43.4829 165.415 43.7738 165.857C44.0704 166.3 44.4118 166.545 44.7979 166.593C45.184 166.635 45.5337 166.429 45.8471 165.976C46.1661 165.523 46.3647 164.769 46.443 163.715C46.4766 162.866 46.3339 162.231 46.015 161.81C45.7016 161.383 45.3267 161.18 44.8902 161.201C44.4593 161.217 44.0788 161.464 43.7487 161.944C43.4241 162.418 43.2674 163.132 43.2786 164.086Z" fill="black"/>
<path d="M48.9868 161.501C49.026 161.148 49.2078 160.914 49.5324 160.798C49.8625 160.682 50.1871 160.676 50.506 160.782C50.825 160.882 50.9873 161.085 50.9929 161.391C51.3342 160.637 51.8267 160.176 52.4702 160.007C53.1137 159.838 53.732 159.938 54.3252 160.307C54.9239 160.671 55.3184 161.285 55.5087 162.15C55.643 162.961 55.6962 163.831 55.6682 164.759C55.6458 165.686 55.5982 166.511 55.5255 167.233C55.4751 167.486 55.2905 167.644 54.9715 167.708C54.6581 167.766 54.3504 167.742 54.0482 167.636C53.746 167.526 53.6005 167.344 53.6117 167.091C53.6173 167.043 53.6229 166.988 53.6285 166.925C53.6845 166.556 53.7404 166.071 53.7964 165.47C53.8579 164.864 53.8831 164.245 53.8719 163.612C53.8607 162.98 53.7712 162.437 53.6033 161.984C53.441 161.53 53.1668 161.269 52.7807 161.201C52.4506 161.153 52.1288 161.309 51.8155 161.667C51.5021 162.026 51.2727 162.605 51.1272 163.407C50.9817 164.208 51.0013 165.249 51.1859 166.53C51.2027 166.767 51.0712 166.938 50.7914 167.043C50.5116 167.149 50.2207 167.17 49.9185 167.107C49.6163 167.038 49.4372 166.864 49.3813 166.585C49.3421 166.211 49.2973 165.836 49.247 165.462C49.1686 164.861 49.1015 164.239 49.0455 163.596C48.9896 162.948 48.97 162.25 48.9868 161.501Z" fill="black"/>
<path d="M46.098 179.263C46.1316 179.02 46.2715 178.875 46.5177 178.828C46.7639 178.775 47.0018 178.807 47.2312 178.923C47.4606 179.033 47.5697 179.213 47.5585 179.46C47.4578 180.109 47.192 180.625 46.7611 181.01C46.3359 181.395 45.8378 181.613 45.2671 181.666C44.6963 181.719 44.1479 181.571 43.6219 181.223C43.1015 180.876 42.6958 180.291 42.4048 179.468C42.1306 178.514 41.9739 177.331 41.9348 175.918C41.9012 174.501 41.918 173.288 41.9851 172.282C42.0299 171.934 42.2313 171.733 42.5895 171.681C42.9476 171.623 43.2945 171.673 43.6303 171.831C43.9716 171.984 44.1423 172.205 44.1423 172.495C44.1255 172.637 44.1031 172.809 44.0751 173.009C44.0248 173.367 43.9772 173.773 43.9325 174.227C43.8933 174.675 43.8849 175.109 43.9073 175.531L46.1148 175.484C46.3498 175.499 46.5065 175.607 46.5849 175.808C46.6632 176.003 46.6632 176.2 46.5849 176.401C46.5121 176.596 46.3582 176.693 46.1232 176.693C45.9553 176.683 45.7931 176.67 45.6364 176.654C45.3006 176.612 45.0068 176.606 44.755 176.638C44.5088 176.664 44.3186 176.788 44.1843 177.01C44.05 177.226 43.9828 177.602 43.9828 178.14C44.022 179.178 44.201 179.882 44.52 180.251C44.8446 180.62 45.1719 180.71 45.5021 180.52C45.8322 180.325 46.0309 179.906 46.098 179.263Z" fill="black"/>
<path d="M48.4649 171.443C48.5544 171.048 48.7811 170.827 49.1448 170.779C49.5085 170.727 49.8471 170.798 50.1604 170.993C50.4738 171.188 50.6025 171.451 50.5465 171.783C50.4122 172.321 50.3115 172.859 50.2444 173.396C50.1772 173.934 50.1436 174.366 50.1436 174.693C50.9718 174.271 51.7245 174.131 52.4015 174.274C53.0842 174.411 53.6298 174.803 54.0383 175.452C54.4468 176.1 54.6567 176.975 54.6678 178.077C54.6511 179.178 54.5979 180.108 54.5084 180.867C54.4972 180.978 54.486 181.081 54.4748 181.176C54.43 181.429 54.2538 181.587 53.946 181.65C53.6438 181.708 53.3472 181.684 53.0563 181.579C52.7653 181.468 52.6254 181.286 52.6366 181.033C52.6422 180.975 52.6506 180.91 52.6618 180.836C52.7177 180.472 52.7737 180 52.8296 179.421C52.8856 178.841 52.9052 178.251 52.8884 177.65C52.8716 177.049 52.7793 176.535 52.6114 176.108C52.4491 175.676 52.1749 175.425 51.7888 175.357C51.4643 175.309 51.1453 175.449 50.8319 175.776C50.5186 176.097 50.2919 176.64 50.152 177.405C50.0121 178.169 50.0345 179.191 50.2192 180.472C50.2304 180.709 50.0961 180.881 49.8163 180.986C49.5365 181.091 49.2455 181.113 48.9433 181.049C48.6412 180.981 48.4649 180.807 48.4145 180.527C48.2579 179.094 48.1767 177.552 48.1711 175.902C48.1655 174.253 48.2634 172.766 48.4649 171.443Z" fill="black"/>
<path d="M60.1071 176.353C60.1798 175.942 60.1518 175.586 60.0231 175.286C59.8944 174.985 59.6874 174.798 59.402 174.724C58.9263 174.635 58.5262 174.738 58.2017 175.033C57.8771 175.323 57.6617 175.689 57.5554 176.132C57.449 176.569 57.477 176.959 57.6393 177.302C57.8407 177.66 58.1121 177.853 58.4535 177.879C58.8004 177.905 59.1306 177.787 59.444 177.523C59.7629 177.26 59.9839 176.87 60.1071 176.353ZM57.4882 178.567C57.5945 179.379 57.8463 179.916 58.2437 180.18C58.641 180.438 59.0215 180.514 59.3852 180.409C59.7545 180.298 59.9895 180.029 60.0903 179.603C60.1406 179.328 60.2777 179.165 60.5016 179.112C60.731 179.054 60.9464 179.081 61.1479 179.191C61.3549 179.297 61.4472 179.455 61.4249 179.666C61.3074 180.177 61.0164 180.601 60.5519 180.939C60.0931 181.271 59.5083 181.416 58.7976 181.373C58.0926 181.331 57.4518 181.094 56.8755 180.662C56.3047 180.224 55.9046 179.634 55.6752 178.891C55.4513 178.142 55.4066 177.384 55.5409 176.614C55.6808 175.839 56.0137 175.175 56.5397 174.622C57.0713 174.068 57.8044 173.747 58.7389 173.657C59.5838 173.615 60.2525 173.778 60.745 174.147C61.243 174.516 61.5536 174.983 61.6767 175.547C61.8054 176.105 61.7382 176.651 61.4752 177.183C61.2178 177.716 60.759 178.124 60.0987 178.409C59.4384 178.693 58.5682 178.746 57.4882 178.567Z" fill="black"/>
<path d="M82.4986 165.207C82.477 164.689 82.3906 164.084 82.2393 163.393C82.0989 162.701 81.8343 162.086 81.4455 161.546C81.0674 160.995 80.5112 160.687 79.7767 160.622C78.5886 160.59 77.6002 161.033 76.8118 161.951C76.0233 162.869 75.4346 164.073 75.0458 165.564C74.6677 167.054 74.4787 168.642 74.4787 170.327C74.4787 172.001 74.6623 173.584 75.0296 175.074C75.4076 176.554 75.9639 177.748 76.6983 178.655C77.4328 179.562 78.3455 179.994 79.4364 179.951C80.4626 179.821 81.2348 179.373 81.7533 178.606C82.2826 177.829 82.5904 177.024 82.6768 176.192C82.8172 175.49 83.1845 175.08 83.7785 174.961C84.3834 174.831 84.9558 174.907 85.4959 175.188C86.036 175.458 86.2844 175.841 86.2412 176.338C85.8847 178.12 84.9774 179.524 83.5193 180.55C82.0719 181.566 80.4248 182.046 78.5778 181.992C76.4607 181.863 74.7217 181.096 73.3608 179.692C72.0106 178.277 71.0547 176.522 70.4931 174.426C69.9422 172.331 69.8072 170.197 70.088 168.026C70.3689 165.845 71.0817 163.927 72.2267 162.275C73.3824 160.611 74.9918 159.504 77.0548 158.953C78.6534 158.575 80.1277 158.581 81.4779 158.97C82.828 159.358 83.9189 160.071 84.7506 161.108C85.5823 162.134 86.0306 163.425 86.0954 164.98C86.063 165.466 85.7659 165.823 85.2043 166.05C84.6426 166.266 84.0701 166.314 83.4869 166.196C82.9144 166.077 82.585 165.747 82.4986 165.207Z" fill="black"/>
<path d="M92.754 179.66C93.7369 179.876 94.52 179.633 95.1033 178.931C95.6974 178.228 96.0646 177.354 96.205 176.306C96.3454 175.258 96.2374 174.324 95.881 173.503C95.5245 172.682 94.8873 172.25 93.9692 172.207C93.0511 172.25 92.3274 172.606 91.7981 173.276C91.2689 173.946 90.9448 174.74 90.826 175.658C90.718 176.565 90.8206 177.402 91.1339 178.169C91.4471 178.925 91.9872 179.422 92.754 179.66ZM96.1564 170.425C95.908 168.524 95.4111 167.281 94.6658 166.698C93.9206 166.104 93.1807 166.012 92.4462 166.423C91.7225 166.833 91.2743 167.573 91.1015 168.642C90.9934 169.236 90.6802 169.577 90.1618 169.663C89.6433 169.75 89.1519 169.663 88.6874 169.404C88.2338 169.134 88.0285 168.772 88.0717 168.318C88.4066 166.947 89.1788 165.953 90.3886 165.337C91.6091 164.711 92.9431 164.495 94.3904 164.689C95.7514 164.905 96.8477 165.488 97.6794 166.439C98.5111 167.389 99.0997 168.545 99.4454 169.906C99.8018 171.267 99.9422 172.671 99.8666 174.119C99.8126 175.372 99.5858 176.56 99.1861 177.683C98.7865 178.806 98.1546 179.73 97.2905 180.454C96.4264 181.177 95.2653 181.566 93.8071 181.62C92.1006 181.62 90.745 181.193 89.7405 180.34C88.736 179.487 88.0987 178.439 87.8287 177.197C87.5695 175.944 87.6937 174.729 88.2013 173.552C88.7198 172.374 89.6325 171.467 90.9394 170.83C92.2572 170.192 93.9962 170.057 96.1564 170.425Z" fill="black"/>
<path d="M102.346 160.363C102.518 159.585 102.956 159.148 103.658 159.051C104.36 158.954 105.014 159.094 105.618 159.472C106.223 159.85 106.466 160.369 106.347 161.027C106.099 162 105.845 163.566 105.586 165.726C105.338 167.875 105.224 169.955 105.246 171.964C105.678 170.451 106.477 168.961 107.644 167.492C108.81 166.023 110.036 164.959 111.321 164.3C111.959 164.019 112.483 164.014 112.893 164.284C113.303 164.543 113.584 164.921 113.735 165.418C113.887 165.915 113.897 166.369 113.768 166.779C113.638 167.19 113.357 167.406 112.925 167.427C112.137 167.449 111.413 167.665 110.754 168.075C110.106 168.486 109.555 168.972 109.102 169.533C108.648 170.084 108.324 170.581 108.13 171.024C109.069 171.164 109.96 171.602 110.803 172.336C111.656 173.071 112.342 174.086 112.861 175.382C113.39 176.678 113.654 178.245 113.654 180.081C113.6 180.578 113.287 180.907 112.715 181.069C112.153 181.231 111.602 181.231 111.062 181.069C110.522 180.896 110.263 180.567 110.284 180.081C110.425 178.72 110.365 177.553 110.106 176.581C109.847 175.609 109.491 174.88 109.037 174.394C108.594 173.897 108.173 173.681 107.773 173.746C107.276 173.854 106.871 174.2 106.558 174.783C106.245 175.355 106.013 176.036 105.861 176.824C105.71 177.613 105.629 178.38 105.618 179.125C105.575 179.589 105.305 179.919 104.808 180.113C104.311 180.297 103.804 180.318 103.285 180.178C102.778 180.027 102.475 179.676 102.378 179.125C102.086 176.295 101.908 173.114 101.843 169.582C101.789 166.05 101.957 162.977 102.346 160.363Z" fill="black"/>
<path d="M123.165 170.165C123.306 169.323 123.252 168.594 123.003 167.978C122.755 167.362 122.355 166.979 121.804 166.828C120.886 166.644 120.114 166.855 119.487 167.46C118.861 168.054 118.445 168.804 118.24 169.712C118.035 170.608 118.089 171.408 118.402 172.11C118.791 172.844 119.315 173.238 119.973 173.292C120.643 173.346 121.28 173.103 121.885 172.563C122.501 172.023 122.928 171.224 123.165 170.165ZM118.11 174.702C118.315 176.365 118.801 177.467 119.568 178.007C120.335 178.536 121.07 178.693 121.772 178.477C122.485 178.25 122.938 177.699 123.133 176.824C123.23 176.263 123.495 175.928 123.927 175.82C124.369 175.701 124.785 175.755 125.174 175.982C125.574 176.198 125.752 176.522 125.709 176.954C125.482 178.002 124.92 178.871 124.024 179.562C123.138 180.243 122.009 180.54 120.638 180.454C119.277 180.367 118.04 179.881 116.927 178.995C115.826 178.099 115.053 176.889 114.611 175.366C114.179 173.832 114.092 172.277 114.351 170.7C114.621 169.112 115.264 167.751 116.279 166.617C117.306 165.483 118.72 164.824 120.524 164.641C122.155 164.554 123.446 164.889 124.396 165.645C125.358 166.401 125.957 167.357 126.195 168.513C126.443 169.658 126.314 170.776 125.806 171.867C125.309 172.958 124.423 173.795 123.149 174.378C121.874 174.961 120.195 175.069 118.11 174.702Z" fill="black"/>
<path d="M38.6188 113.737C36.885 113.822 35.4538 113.945 34.3251 114.107C33.9326 114.138 33.6504 113.999 33.4787 113.691C33.3069 113.383 33.2579 113.055 33.3315 112.709C33.4132 112.354 33.6422 112.127 34.0185 112.027C35.6214 111.742 37.5106 111.569 39.6861 111.507C41.8615 111.445 43.714 111.453 45.2433 111.53C45.734 111.584 46.0448 111.811 46.1756 112.212C46.3147 112.605 46.2901 112.986 46.102 113.356C45.9221 113.718 45.595 113.88 45.1206 113.841C44.1392 113.695 43.3909 113.649 42.8757 113.703C42.3686 113.749 42.0087 113.918 41.7961 114.211C41.5916 114.504 41.4567 114.943 41.3913 115.528C41.1296 117.5 40.9987 119.611 40.9987 121.86C41.0069 124.102 41.1255 125.955 41.3545 127.418C41.379 127.765 41.1868 128.023 40.7779 128.193C40.3772 128.354 39.956 128.393 39.5143 128.308C39.0727 128.216 38.8069 127.965 38.7169 127.557C38.4798 125.616 38.353 123.343 38.3366 120.74C38.3285 118.128 38.4225 115.794 38.6188 113.737Z" fill="black"/>
<path d="M47.5625 112.905C47.6934 112.327 48.0246 112.004 48.5562 111.934C49.0878 111.857 49.5826 111.961 50.0406 112.246C50.4986 112.531 50.6867 112.917 50.6049 113.402C50.4086 114.188 50.2614 114.973 50.1632 115.759C50.0651 116.545 50.016 117.177 50.016 117.654C51.2264 117.038 52.3264 116.834 53.316 117.042C54.3138 117.242 55.1112 117.816 55.7082 118.763C56.3052 119.711 56.6119 120.99 56.6283 122.6C56.6037 124.21 56.526 125.569 56.3952 126.679C56.3788 126.84 56.3625 126.991 56.3461 127.129C56.2807 127.499 56.0231 127.73 55.5733 127.823C55.1316 127.907 54.6982 127.873 54.2729 127.719C53.8476 127.557 53.6432 127.291 53.6595 126.921C53.6677 126.837 53.68 126.74 53.6963 126.632C53.7781 126.101 53.8599 125.411 53.9417 124.564C54.0235 123.717 54.0521 122.854 54.0275 121.976C54.003 121.098 53.8681 120.347 53.6227 119.723C53.3855 119.091 52.9848 118.725 52.4205 118.625C51.9461 118.555 51.48 118.76 51.022 119.237C50.564 119.707 50.2328 120.501 50.0283 121.618C49.8238 122.735 49.8566 124.229 50.1264 126.101C50.1428 126.448 49.9465 126.698 49.5376 126.852C49.1287 127.006 48.7034 127.037 48.2618 126.944C47.8201 126.844 47.5625 126.59 47.4889 126.182C47.2599 124.087 47.1413 121.833 47.1331 119.422C47.125 117.011 47.2681 114.839 47.5625 112.905Z" fill="black"/>
<path d="M64.5779 120.081C64.6843 119.48 64.6434 118.96 64.4553 118.521C64.2671 118.082 63.9645 117.808 63.5474 117.7C62.8523 117.57 62.2675 117.72 61.7932 118.151C61.3188 118.575 61.004 119.11 60.8486 119.757C60.6932 120.397 60.7341 120.967 60.9713 121.467C61.2657 121.991 61.6623 122.272 62.1612 122.311C62.6683 122.349 63.1508 122.176 63.6088 121.791C64.075 121.406 64.398 120.836 64.5779 120.081ZM60.7504 123.316C60.9058 124.503 61.2739 125.288 61.8545 125.673C62.4352 126.051 62.9913 126.163 63.5229 126.009C64.0627 125.847 64.4062 125.454 64.5534 124.83C64.627 124.429 64.8274 124.191 65.1545 124.113C65.4898 124.029 65.8047 124.067 66.0991 124.229C66.4017 124.383 66.5367 124.614 66.5039 124.922C66.3322 125.67 65.9069 126.29 65.2281 126.783C64.5575 127.268 63.7028 127.48 62.6642 127.418C61.6337 127.357 60.6973 127.01 59.8549 126.378C59.0207 125.739 58.4359 124.876 58.1006 123.79C57.7735 122.696 57.7081 121.587 57.9044 120.462C58.1088 119.33 58.5954 118.359 59.3642 117.55C60.1411 116.741 61.2125 116.271 62.5783 116.141C63.8133 116.079 64.7906 116.318 65.5103 116.857C66.2381 117.396 66.6921 118.078 66.872 118.902C67.0601 119.719 66.9619 120.516 66.5776 121.294C66.2014 122.072 65.5307 122.669 64.5657 123.085C63.6006 123.501 62.3289 123.578 60.7504 123.316Z" fill="black"/>
</svg>
